<svg width="268" height="100" viewBox="0 0 268 100" fill="none" xmlns="http://www.w3.org/2000/svg">
<path fill-rule="evenodd" clip-rule="evenodd" d="M119.723 96.3071C108.216 95.5821 96.2973 94.3936 84.0515 92.7393C37.1883 86.4156 9.46182 75.3682 3.86426 60.7968C1.58515 54.8568 3.14487 48.4674 8.37757 42.3172C21.1439 27.3131 54.1157 14.294 96.5746 7.49016C144.778 -0.234171 198.63 1.15531 248.207 11.4019C249.055 11.5776 249.599 12.4052 249.423 13.2502C249.248 14.0967 248.428 14.6502 247.573 14.4662C137.842 -8.21564 34.0237 17.0119 10.7666 44.3445C6.25641 49.6434 4.92025 54.802 6.79232 59.6768C9.73643 67.3472 23.7464 81.4437 84.4698 89.6394C180.277 102.57 240.24 84.9128 257.16 61.6774C261.759 55.3635 262.751 49.0339 260.029 43.3734C255.247 33.4236 239.486 26.8584 217.873 25.8619L217.848 25.8603C216.996 25.8066 216.341 25.0802 216.381 24.2251C216.421 23.3622 217.156 22.6951 218.02 22.7355C241.13 23.8263 257.486 30.8539 262.854 42.0181C266.06 48.6842 264.938 56.3195 259.696 63.5179C250.615 75.9886 230.754 86.0146 203.772 91.7445C180.064 96.7807 151.459 98.3068 119.723 96.3071" fill="#7748EF"/>
<path d="M119.723 96.3071C108.216 95.5821 96.2973 94.3936 84.0515 92.7393C37.1883 86.4156 9.46182 75.3682 3.86426 60.7968C1.58515 54.8568 3.14487 48.4674 8.37757 42.3172C21.1439 27.3131 54.1157 14.294 96.5746 7.49016C144.778 -0.234171 198.63 1.15531 248.207 11.4019C249.055 11.5776 249.599 12.4052 249.423 13.2502C249.248 14.0967 248.428 14.6502 247.573 14.4662C137.842 -8.21564 34.0237 17.0119 10.7666 44.3445C6.25641 49.6434 4.92025 54.802 6.79232 59.6768C9.73643 67.3472 23.7464 81.4437 84.4698 89.6394C180.277 102.57 240.24 84.9128 257.16 61.6774C261.759 55.3635 262.751 49.0339 260.029 43.3734C255.247 33.4236 239.486 26.8584 217.873 25.8619L217.848 25.8603C216.996 25.8066 216.341 25.0802 216.381 24.2251C216.421 23.3622 217.156 22.6951 218.02 22.7355C241.13 23.8263 257.486 30.8539 262.854 42.0181C266.06 48.6842 264.938 56.3195 259.696 63.5179C250.615 75.9886 230.754 86.0146 203.772 91.7445C180.064 96.7807 151.459 98.3068 119.723 96.3071" stroke="#7748EF" stroke-width="5"/>
</svg>
