<svg width="43" height="18" viewBox="0 0 43 18" fill="none" xmlns="http://www.w3.org/2000/svg">
<path d="M0.687293 1.99553C0.587293 2.37053 0.212292 2.97053 0.0622925 4.27053C0.0372925 4.39553 0.0372925 4.49553 0.0372925 4.57053C0.0372925 5.04553 0.287293 5.22053 0.887293 5.54553C1.21229 5.79553 1.23729 5.82053 1.23729 6.89553V7.37053C1.23729 9.92053 1.78729 15.7205 2.06229 16.8205C2.18729 17.2705 2.53729 17.9705 3.48729 17.9705C3.88729 17.9705 4.36229 17.8455 4.98729 17.5705C5.06229 17.5205 5.08729 17.2705 5.08729 16.8455C5.08729 14.6705 4.31229 8.12053 4.31229 4.27053C4.31229 3.92053 4.31229 3.57053 4.33729 3.27053V2.92053C4.33729 1.74553 3.98729 0.445531 2.53729 0.445531C2.31229 0.445531 2.06229 0.470532 1.78729 0.545531C1.33729 0.820532 0.962293 1.27053 0.687293 1.99553ZM10.0361 6.27053C9.93612 7.32053 9.76112 7.79553 8.83612 7.89553C7.78612 7.99553 7.58612 8.19553 7.58612 8.72053V8.82053C7.58612 9.32053 8.26112 9.77053 9.23612 9.87053C9.66112 9.97053 9.98612 9.89553 10.0861 10.5205C10.0861 10.8205 10.3111 12.1455 10.4111 12.2455C10.6611 12.5955 11.1361 12.7955 11.7111 12.7955C11.8361 12.7955 11.9361 12.7955 12.0611 12.7705C12.9861 12.7705 13.1111 11.7705 13.1111 10.6205C13.1111 9.57053 13.3361 9.89553 14.7861 9.59553C15.8361 9.49553 16.2611 9.27053 16.2611 8.74553C16.2611 8.24553 16.0361 7.62053 14.7361 7.62053H14.5861C14.5361 7.62053 14.3361 7.64553 14.0611 7.64553C13.5361 7.64553 12.8361 7.52053 12.8361 6.64553V6.39553C12.7361 5.34553 12.6361 5.02053 12.2111 4.82053C11.9111 4.59553 11.3111 4.47053 10.8861 4.47053C10.7611 4.47053 10.6361 4.49553 10.5611 4.52053C10.2611 4.62053 10.0361 5.22053 10.0361 6.27053ZM19.4226 1.99553C19.3226 2.37053 18.9476 2.97053 18.7976 4.27053C18.7726 4.39553 18.7726 4.49553 18.7726 4.57053C18.7726 5.04553 19.0226 5.22053 19.6226 5.54553C19.9476 5.79553 19.9726 5.82053 19.9726 6.89553V7.37053C19.9726 9.92053 20.5226 15.7205 20.7976 16.8205C20.9226 17.2705 21.2726 17.9705 22.2226 17.9705C22.6226 17.9705 23.0976 17.8455 23.7226 17.5705C23.7976 17.5205 23.8226 17.2705 23.8226 16.8455C23.8226 14.6705 23.0476 8.12053 23.0476 4.27053C23.0476 3.92053 23.0476 3.57053 23.0726 3.27053V2.92053C23.0726 1.74553 22.7226 0.445531 21.2726 0.445531C21.0476 0.445531 20.7976 0.470532 20.5226 0.545531C20.0726 0.820532 19.6976 1.27053 19.4226 1.99553ZM37.1957 7.19553C36.2707 7.29553 35.3207 7.39553 35.2207 7.39553C34.9957 7.49553 34.8957 7.67053 34.8957 7.87053C34.8957 8.04553 34.9707 8.24553 35.1207 8.44553C35.5207 8.99553 36.1457 9.24553 37.6457 9.24553C38.1207 9.24553 38.6957 9.22053 39.3707 9.17053C41.4457 8.97053 41.9707 8.97053 42.1707 8.54553C42.3207 8.39553 42.3957 8.22053 42.3957 8.07053C42.3957 7.89553 42.3207 7.74553 42.1707 7.59553C41.8457 7.19553 41.1707 6.92053 40.3707 6.92053C40.1457 6.92053 39.9207 6.94553 39.6957 6.99553C39.3957 6.99553 38.2457 7.09553 37.1957 7.19553ZM35.2457 11.3955C35.0957 11.4705 34.9957 11.5955 34.9957 11.7455C34.9957 11.7955 35.0207 11.8455 35.0457 11.8955C35.1457 12.2955 35.0707 12.9455 36.8457 12.9455H37.2207C38.5707 12.8705 42.1207 12.6205 42.4207 12.5205C42.5957 12.4205 42.9707 12.0455 42.9707 11.6455C42.9707 11.3205 42.7207 10.9955 41.8957 10.7705C41.6207 10.6705 41.2207 10.6205 40.6207 10.6205C40.0207 10.6205 39.2457 10.6705 38.2707 10.7705C36.0957 10.9705 35.5457 11.0955 35.2457 11.3955Z" fill="#7748EF"/>
</svg>
