<svg width="304" height="55" viewBox="0 0 304 55" fill="none" xmlns="http://www.w3.org/2000/svg">
<path fill-rule="evenodd" clip-rule="evenodd" d="M3.06578 29.7548C2.985 28.877 3.62523 28.1071 4.49577 28.0351C9.42842 27.6271 14.351 27.0661 19.2963 26.5025C20.0767 26.4136 20.8576 26.3246 21.6393 26.2361C22.507 26.1379 23.297 26.7678 23.4038 27.643C23.5105 28.5183 22.8937 29.3074 22.0259 29.4056C21.2486 29.4936 20.4702 29.5823 19.6911 29.6711C14.749 30.2344 9.77325 30.8015 4.7883 31.2138C3.91776 31.2858 3.14656 30.6326 3.06578 29.7548Z" fill="#7748EF" stroke="#7748EF" stroke-width="5" stroke-linecap="round"/>
<path fill-rule="evenodd" clip-rule="evenodd" d="M12.7012 50.6221C12.3175 49.8358 12.629 48.8902 13.397 48.5099C14.7037 47.8628 16.0009 47.1201 17.3548 46.3449C17.9138 46.0248 18.4825 45.6992 19.0656 45.3725C21.0163 44.2794 23.0799 43.2036 25.215 42.491C26.0276 42.2198 26.911 42.6729 27.188 43.5031C27.4651 44.3333 27.031 45.2262 26.2184 45.4974C24.3687 46.1147 22.512 47.0717 20.5924 48.1473C20.0661 48.4422 19.5305 48.7489 18.9895 49.0586C17.6029 49.8525 16.1806 50.6668 14.7867 51.357C14.0187 51.7374 13.085 51.4083 12.7012 50.6221Z" fill="#7748EF" stroke="#7748EF" stroke-width="5" stroke-linecap="round"/>
<path fill-rule="evenodd" clip-rule="evenodd" d="M11.7682 6.07215C12.0721 5.2449 12.9756 4.82507 13.7862 5.13444C18.1627 6.80477 22.0703 8.96404 25.6973 12.0537C26.3616 12.6196 26.45 13.628 25.8948 14.3061C25.3396 14.9843 24.3511 15.0753 23.6869 14.5095C20.3759 11.6891 16.7907 9.69689 12.6856 8.13017C11.875 7.8208 11.4642 6.8994 11.7682 6.07215Z" fill="#7748EF" stroke="#7748EF" stroke-width="5" stroke-linecap="round"/>
<path fill-rule="evenodd" clip-rule="evenodd" d="M298.284 5.22716C298.738 5.9825 298.496 6.95423 297.744 7.39758C293.479 9.90968 289.29 12.5552 285.082 15.2129C284.418 15.6323 283.753 16.052 283.088 16.4715C282.349 16.9373 281.364 16.7135 280.887 15.9718C280.41 15.23 280.623 14.2512 281.361 13.7854C282.023 13.3682 282.685 12.9499 283.348 12.5312C287.554 9.8751 291.788 7.20098 296.098 4.66225C296.851 4.2189 297.829 4.47182 298.284 5.22716Z" fill="#7748EF" stroke="#7748EF" stroke-width="5" stroke-linecap="round"/>
<path fill-rule="evenodd" clip-rule="evenodd" d="M285.104 28.7442C285.046 27.8713 285.691 27.1134 286.546 27.0515C288 26.9461 289.482 26.7486 291.028 26.5424C291.667 26.4573 292.317 26.3707 292.98 26.2885C295.199 26.0135 297.516 25.7971 299.762 25.9441C300.617 26 301.264 26.7533 301.207 27.6267C301.149 28.5 300.41 29.1627 299.555 29.1067C297.609 28.9794 295.529 29.1639 293.345 29.4345C292.746 29.5087 292.135 29.5903 291.517 29.6726C289.933 29.8837 288.308 30.1003 286.757 30.2127C285.902 30.2746 285.162 29.6171 285.104 28.7442Z" fill="#7748EF" stroke="#7748EF" stroke-width="5" stroke-linecap="round"/>
<path fill-rule="evenodd" clip-rule="evenodd" d="M294.66 49.8414C294.356 50.6687 293.452 51.0885 292.642 50.7791C288.265 49.1088 284.357 46.9495 280.73 43.8598C280.066 43.294 279.978 42.2856 280.533 41.6074C281.088 40.9293 282.077 40.8382 282.741 41.4041C286.052 44.2245 289.637 46.2167 293.742 47.7834C294.553 48.0928 294.963 49.0142 294.66 49.8414Z" fill="#7748EF" stroke="#7748EF" stroke-width="5" stroke-linecap="round"/>
</svg>
